<?xml version="1.0" encoding="utf-8"?>
<!-- Generator: Adobe Illustrator 23.0.6, SVG Export Plug-In . SVG Version: 6.00 Build 0)  -->
<svg version="1.1" id="Layer_1" xmlns="http://www.w3.org/2000/svg" xmlns:xlink="http://www.w3.org/1999/xlink" x="0px" y="0px"
	 viewBox="0 0 150 150" style="enable-background:new 0 0 150 150;" xml:space="preserve">
<style type="text/css">
	.st0{fill:none;}
	.st1{fill:#FFFFFF;}
</style>
<rect class="st0" width="150" height="150"/>
<path id="XMLID_257_" class="st1" d="M57.12,96.11h-1.99l1.4-1.4c3.55-3.56,3.55-9.34,0-12.9c-0.01-0.01-0.02-0.02-0.03-0.03
	c-3.56-3.52-9.32-3.51-12.86,0.03l-1.4,1.4v-1.98c0-5.03-4.09-9.12-9.12-9.12c-5.03,0-9.12,4.09-9.12,9.12v1.98l-1.4-1.4
	c-3.56-3.55-9.34-3.55-12.9,0c-3.55,3.56-3.56,9.34,0,12.9l1.4,1.4H9.12c-5.03,0-9.12,4.09-9.12,9.12c0,5.03,4.09,9.12,9.12,9.12
	h1.98l-1.4,1.4c-3.56,3.56-3.56,9.34,0,12.9c0.01,0.01,0.03,0.03,0.04,0.04c3.56,3.51,9.31,3.5,12.86-0.04l1.4-1.4v1.98
	c0,5.03,4.09,9.12,9.12,9.12c5.03,0,9.12-4.09,9.12-9.12v-1.98l1.4,1.4c3.56,3.55,9.34,3.55,12.9,0c3.56-3.56,3.56-9.34,0-12.9
	l-1.4-1.4h1.99c5.03,0,9.12-4.09,9.12-9.12C66.24,100.2,62.15,96.11,57.12,96.11z M57.12,108.38h-5.34c-1.29,0-2.44,0.83-2.84,2.06
	c-0.26,0.79-0.58,1.57-0.96,2.31c-0.58,1.15-0.36,2.55,0.55,3.46l3.78,3.78c1.23,1.23,1.23,3.22,0,4.45c-1.23,1.23-3.22,1.23-4.45,0
	l-3.78-3.78c-0.91-0.91-2.31-1.14-3.46-0.55c-0.74,0.38-1.52,0.7-2.31,0.96c-1.23,0.4-2.06,1.55-2.06,2.84v5.34
	c0,1.73-1.41,3.15-3.15,3.15c-1.73,0-3.15-1.41-3.15-3.15v-5.34c0-1.29-0.83-2.44-2.05-2.84c-0.79-0.26-1.57-0.58-2.31-0.96
	c-0.43-0.22-0.89-0.32-1.35-0.32c-0.77,0-1.54,0.3-2.11,0.87l-3.78,3.78c-1.23,1.23-3.22,1.23-4.45,0
	c-0.01-0.01-0.01-0.01-0.02-0.02c-1.2-1.23-1.2-3.21,0.02-4.43l3.78-3.78c0.91-0.91,1.14-2.31,0.55-3.46
	c-0.37-0.74-0.7-1.51-0.96-2.31c-0.4-1.23-1.55-2.05-2.84-2.05H9.12c-1.73,0-3.15-1.41-3.15-3.15s1.41-3.15,3.15-3.15h5.34
	c1.29,0,2.43-0.83,2.84-2.05c0.26-0.79,0.58-1.57,0.96-2.31c0.58-1.15,0.36-2.55-0.55-3.46l-3.78-3.78c-1.23-1.23-1.23-3.22,0-4.45
	c1.23-1.23,3.22-1.23,4.45,0l3.78,3.78c0.91,0.91,2.31,1.14,3.46,0.55c0.74-0.37,1.52-0.7,2.31-0.96c1.23-0.4,2.05-1.55,2.05-2.84
	v-5.34c0-1.73,1.41-3.15,3.15-3.15c1.73,0,3.14,1.41,3.14,3.15v5.34c0,1.29,0.83,2.43,2.05,2.84c0.79,0.26,1.57,0.58,2.31,0.96
	c1.15,0.58,2.55,0.36,3.46-0.55l3.78-3.78c1.23-1.23,3.22-1.23,4.45,0c0.01,0.01,0.01,0.01,0.02,0.02c1.21,1.23,1.2,3.21-0.02,4.43
	l-3.78,3.78c-0.91,0.91-1.14,2.31-0.55,3.46c0.37,0.74,0.7,1.52,0.96,2.31c0.4,1.23,1.55,2.05,2.84,2.05h5.34
	c1.73,0,3.14,1.41,3.14,3.15C60.27,106.97,58.86,108.38,57.12,108.38z M125.1,79.95c-1.65,0-2.99-1.34-2.99-2.99V42.66
	c0-1.37-1.11-2.48-2.48-2.48h-5.47c-1.65,0-2.99-1.34-2.99-2.99s1.34-2.99,2.99-2.99h5.47c4.66,0,8.45,3.79,8.45,8.46v34.31
	C128.09,78.62,126.75,79.95,125.1,79.95z M33.12,95.36c-5.44,0-9.87,4.43-9.87,9.87c0,5.44,4.43,9.87,9.87,9.87s9.87-4.43,9.87-9.87
	C42.99,99.79,38.56,95.36,33.12,95.36z M33.12,109.13c-2.15,0-3.9-1.75-3.9-3.9c0-2.15,1.75-3.9,3.9-3.9s3.9,1.75,3.9,3.9
	C37.02,107.38,35.27,109.13,33.12,109.13z M98.89,3H79.93c-1.65,0-2.99,1.34-2.99,2.99v125.68c0,1.65,1.34,2.99,2.99,2.99h18.96
	c1.65,0,2.99-1.34,2.99-2.99V5.99C101.88,4.34,100.54,3,98.89,3z M95.91,128.68H82.92v-14.97h4.02c1.65,0,2.99-1.34,2.99-2.99
	c0-1.65-1.34-2.99-2.99-2.99h-4.02V92.76h4.02c1.65,0,2.99-1.34,2.99-2.99s-1.34-2.99-2.99-2.99h-4.02V71.81h4.02
	c1.65,0,2.99-1.34,2.99-2.99c0-1.65-1.34-2.99-2.99-2.99h-4.02V50.87h4.02c1.65,0,2.99-1.34,2.99-2.99c0-1.65-1.34-2.99-2.99-2.99
	h-4.02V29.92h4.02c1.65,0,2.99-1.34,2.99-2.99c0-1.65-1.34-2.99-2.99-2.99h-4.02V8.97h12.99V128.68z M150,15.12v107.41
	c0,1.65-1.34,2.99-2.99,2.99h-17.31c-1.65,0-2.99-1.34-2.99-2.99c0-1.65,1.34-2.99,2.99-2.99h14.32V18.11h-31.24
	c-1.65,0-2.99-1.34-2.99-2.99s1.34-2.99,2.99-2.99h34.22C148.66,12.14,150,13.47,150,15.12z M117.15,144.38v0.53
	c0,1.65-1.34,2.99-2.99,2.99c-1.65,0-2.99-1.34-2.99-2.99v-0.53c0-1.65,1.34-2.99,2.99-2.99
	C115.81,141.4,117.15,142.73,117.15,144.38z M117.15,48.1v86.6c0,1.65-1.34,2.99-2.99,2.99c-1.65,0-2.99-1.34-2.99-2.99V48.1
	c0-1.65,1.34-2.99,2.99-2.99C115.81,45.11,117.15,46.45,117.15,48.1z M66.99,12.14c0,0-26.52,0-26.58,0
	c-0.67,0.03-1.27,0.29-1.75,0.69c0,0,0,0,0,0c0,0,0,0,0,0c0,0,0,0,0,0c0,0,0,0,0,0c0,0,0,0-0.01,0v0
	c-0.06,0.05-26.92,26.9-26.92,26.9c-0.52,0.51-0.84,1.22-0.88,1.99c0,0.05,0,25.07,0,25.07c0,1.65,1.34,2.99,2.99,2.99
	s2.99-1.34,2.99-2.99V44.85h23.75c1.65,0,2.99-1.34,2.99-2.99V18.11h23.44c1.65,0,2.99-1.34,2.99-2.99S68.64,12.14,66.99,12.14z
	 M37.58,38.88H21.04l16.54-16.54C37.58,22.34,37.58,38.88,37.58,38.88z"/>
</svg>
