<?xml version="1.0" encoding="utf-8"?>
<!-- Generator: Adobe Illustrator 23.0.6, SVG Export Plug-In . SVG Version: 6.00 Build 0)  -->
<svg version="1.1" id="Layer_1" xmlns="http://www.w3.org/2000/svg" xmlns:xlink="http://www.w3.org/1999/xlink" x="0px" y="0px"
	 viewBox="0 0 150 150" style="enable-background:new 0 0 150 150;" xml:space="preserve">
<style type="text/css">
	.st0{fill:none;}
	.st1{fill:#FFFFFF;}
</style>
<rect class="st0" width="150" height="150"/>
<path class="st1" d="M148.13,52.86c1.03,0,1.87-0.84,1.87-1.87s-0.84-1.87-1.87-1.87h-28.68V31.87h28.68c1.03,0,1.87-0.84,1.87-1.87
	s-0.84-1.87-1.87-1.87h-28.68V4.34c0-1.03-0.84-1.87-1.87-1.87s-1.87,0.84-1.87,1.87v23.79H34.3V4.34c0-1.03-0.84-1.87-1.87-1.87
	c-1.03,0-1.87,0.84-1.87,1.87v23.79H1.87C0.84,28.13,0,28.97,0,30c0,1.03,0.84,1.87,1.87,1.87h28.68v17.24H1.87
	C0.84,49.12,0,49.96,0,50.99c0,1.03,0.84,1.87,1.87,1.87h28.68v57.5H1.87c-1.03,0-1.87,0.84-1.87,1.87c0,1.03,0.84,1.87,1.87,1.87
	h28.68v31.56c0,1.03,0.84,1.87,1.87,1.87c1.03,0,1.87-0.84,1.87-1.87V114.1h81.41v31.56c0,1.03,0.84,1.87,1.87,1.87
	s1.87-0.84,1.87-1.87V114.1h28.68c1.03,0,1.87-0.84,1.87-1.87s-0.84-1.87-1.87-1.87h-28.68v-57.5H148.13z M115.7,31.87v17.24H57.73
	l6.37-17.24H115.7z M34.3,31.87h25.82l-6.37,17.24H34.3L34.3,31.87L34.3,31.87z M52.36,52.86l-18.06,48.9v-48.9H52.36z
	 M56.42,110.36l4.44-12.88h27.76l4.44,12.88H56.42z M115.7,110.36H97.01L91.72,95c-0.26-0.75-0.97-1.26-1.77-1.26H59.52
	c-0.8,0-1.51,0.51-1.77,1.26l-5.29,15.36H35.11l21.24-57.5h15.8l-9.29,27.06c-0.2,0.57-0.1,1.2,0.25,1.69
	c0.35,0.49,0.92,0.78,1.52,0.78h20.23c0.6,0,1.17-0.29,1.52-0.78c0.35-0.49,0.44-1.12,0.25-1.69l-9.29-27.06h38.38V110.36z
	 M74.74,56.83l7.5,21.83H67.24L74.74,56.83z"/>
</svg>
