<?xml version="1.0" encoding="utf-8"?>
<!-- Generator: Adobe Illustrator 23.0.6, SVG Export Plug-In . SVG Version: 6.00 Build 0)  -->
<svg version="1.1" id="Layer_1" xmlns="http://www.w3.org/2000/svg" xmlns:xlink="http://www.w3.org/1999/xlink" x="0px" y="0px"
	 viewBox="0 0 100 100" style="enable-background:new 0 0 100 100;" xml:space="preserve">
<style type="text/css">
	.st0{fill:#FFFFFF;}
</style>
<path id="Path_13" d="M89.44,26.04L49,2.71c-0.66-0.38-1.48-0.38-2.14,0L28.17,13.48v49.17l19.81,11.44l0,0l18.48,10.67L47.93,95.42
	L9.64,73.32V24.2l-3.17,1.84c-0.66,0.38-1.07,1.08-1.07,1.84v46.66C5.41,75.3,5.82,76,6.48,76.38l40.44,23.33
	c0.66,0.38,1.48,0.38,2.14,0l40.44-23.33c0.66-0.38,1.07-1.08,1.07-1.84V27.88C90.55,27.11,90.12,26.41,89.44,26.04L89.44,26.04z
	 M86.27,73.32L86.27,73.32L47.98,51.21V6.99L86.27,29.1V73.32z"/>
<path id="Path_14" class="st0" d="M52.02,97.36c-0.32-0.01-0.64-0.09-0.92-0.26L10.66,73.77c-0.57-0.34-0.92-0.96-0.92-1.63V25.48
	c0-0.67,0.34-1.29,0.92-1.63l2.81-1.63v48.81l38.55,22.26L71.01,82.3L51.76,71.22l0,0l-19.3-11.13V11.23L51.1,0.51
	c0.58-0.34,1.3-0.34,1.89,0l40.44,23.33c0.57,0.34,0.92,0.96,0.92,1.63v46.66c0,0.67-0.34,1.29-0.92,1.63L52.94,97.11
	C52.66,97.27,52.34,97.36,52.02,97.36z M51.76,48.96l38.8,22.41V26.55L51.76,4.14V48.96z"/>
<path id="Path_15" d="M52.02,0.51c0.29,0,0.57,0.07,0.82,0.2l40.38,23.33c0.49,0.29,0.8,0.81,0.82,1.38v46.66
	c0.01,0.59-0.31,1.14-0.82,1.43L52.84,96.85c-0.51,0.29-1.13,0.29-1.63,0L10.77,73.52c-0.49-0.28-0.8-0.81-0.82-1.38V25.48
	c0.01-0.57,0.32-1.09,0.82-1.38l2.4-1.38v48.55l0.26,0.15l38.29,22.11l0.26,0.15l0.26-0.15l18.53-10.77l0.77-0.46l-0.77-0.46
	L52.27,71.22l-0.77-0.41L32.72,59.94V11.38L51.2,0.71C51.45,0.58,51.73,0.51,52.02,0.51 M90.82,71.78V26.4l-0.25-0.15L52.27,4.13
	L51.5,3.67v45.44l0.26,0.15l38.29,22.11l0.77,0.46 M52.02,0c-0.38,0.01-0.75,0.11-1.07,0.31L32.21,11.08v49.17l19.81,11.44l0,0
	L70.5,82.35L52.02,93.02L13.72,70.92V21.8l-3.22,1.84c-0.66,0.38-1.06,1.08-1.07,1.84v46.67c0.01,0.76,0.41,1.46,1.07,1.84
	l40.44,23.33c0.66,0.38,1.48,0.38,2.14,0l40.44-23.33c0.66-0.38,1.07-1.08,1.07-1.84V25.48c-0.01-0.76-0.41-1.46-1.07-1.84
	L53.09,0.31C52.76,0.11,52.39,0.01,52.02,0z M90.31,70.92L52.02,48.81V4.6L90.31,26.7V70.92z"/>
</svg>
