<?xml version="1.0" encoding="utf-8"?>
<!-- Generator: Adobe Illustrator 23.0.6, SVG Export Plug-In . SVG Version: 6.00 Build 0)  -->
<svg version="1.1" id="Layer_1" xmlns="http://www.w3.org/2000/svg" xmlns:xlink="http://www.w3.org/1999/xlink" x="0px" y="0px"
	 viewBox="0 0 150 150" style="enable-background:new 0 0 150 150;" xml:space="preserve">
<style type="text/css">
	.st0{fill:none;}
	.st1{fill:#FFFFFF;}
</style>
<rect class="st0" width="150" height="150"/>
<g>
	<path class="st1" d="M128.39,22.26C114.17,7.87,142.35,36.4,128.39,22.26C109.66,3.29,80.95-4.43,55.22,2.55
		C31.24,9.05,11.51,28.11,3.77,51.67c-4.7,14.32-5.05,30.07-0.81,44.54c6.81,23.21,25.5,42.33,48.38,50.02
		c24.42,8.21,52.33,2.66,72.01-13.88c5.47-4.6,10.33-10.08,14.27-16.04c0.32-0.49,0.64-0.99,0.95-1.48c0.88-1.4,0.46-3.24-0.94-4.12
		c-1.4-0.88-3.24-0.46-4.12,0.94c-0.29,0.46-0.58,0.91-0.87,1.36c-2.17,3.28-4.63,6.39-7.33,9.26l-11.06-11.06
		c3.19-3.45,5.93-7.32,8.12-11.49c2.25-4.29,3.89-8.89,4.89-13.63c0.5-2.37,0.84-4.78,1.01-7.21h15.67
		c-0.23,4.16-0.84,8.28-1.8,12.3c-0.39,1.61,0.6,3.22,2.21,3.61c1.6,0.39,3.22-0.6,3.6-2.21C153.98,67.52,146.5,40.61,128.39,22.26z
		 M110.94,35.46c-3.54-3.24-7.52-5.99-11.8-8.17c-4.41-2.24-9.14-3.85-14-4.78c-2.45-0.47-4.94-0.77-7.44-0.89V5.97
		c16.6,0.64,32.15,7.1,44.3,18.43L110.94,35.46z M71.72,21.66c-2.04,0.12-4.08,0.36-6.07,0.72c-1.63,0.29-2.71,1.84-2.43,3.46
		c0.29,1.63,1.84,2.71,3.46,2.43c6.43-1.13,13.19-1.02,19.54,0.54c5.46,1.33,10.65,3.71,15.26,6.92c4.59,3.19,8.6,7.18,11.84,11.73
		c3.26,4.58,5.73,9.73,7.23,15.15c1.08,3.9,1.65,7.95,1.68,11.99c0.1,12.87-5,25.54-14.27,34.51
		c-16.92,16.37-45.14,17.51-63.23,2.38C30.7,99.74,24.48,79.71,29.46,62.09c2.79-9.87,8.72-18.77,16.91-24.97
		c1.32-1,1.58-2.87,0.58-4.19c-1-1.32-2.87-1.58-4.19-0.58c-1.39,1.05-2.73,2.18-4.02,3.36L27.68,24.66
		C39.74,13.3,55.18,6.75,71.72,5.99L71.72,21.66L71.72,21.66z M71.72,143.99c-16.06-0.74-31.16-6.97-43.08-17.77l11.08-11.08
		c3.72,3.28,7.9,6.03,12.37,8.16c3.86,1.83,7.94,3.19,12.13,4.05c2.47,0.5,4.98,0.83,7.5,0.98L71.72,143.99L71.72,143.99z
		 M23.5,28.93l11.08,11.08c-3.02,3.48-5.58,7.34-7.61,11.47c-2.1,4.28-3.61,8.84-4.5,13.52c-0.49,2.61-0.79,5.26-0.89,7.92H5.93
		C6.41,56.56,12.59,41.11,23.5,28.93z M21.69,78.9c0.32,4.48,1.21,8.91,2.64,13.17c1.55,4.62,3.75,9.01,6.5,13.03
		c1.41,2.05,2.95,4.01,4.63,5.84l-11.07,11.07C13.36,110.17,6.92,95.05,6.02,78.9H21.69z M77.7,128.35
		c4.66-0.23,9.29-1.07,13.73-2.51c4.44-1.43,8.69-3.46,12.6-6c2.07-1.35,4.06-2.84,5.92-4.46l11.08,11.08
		c-12.01,10.77-27.21,16.92-43.33,17.54V128.35z M128.37,72.93c-0.17-4.61-0.94-9.2-2.29-13.61c-1.44-4.72-3.55-9.24-6.25-13.38
		c-1.42-2.18-2.99-4.25-4.71-6.21l11.08-11.08c11.07,12.22,17.34,27.77,17.82,44.27L128.37,72.93L128.37,72.93z"/>
	<path class="st1" d="M72.21,57.07c0-1.4-1.65-1.77-2.77-1.77c-1.12,0-2.77,0.38-2.77,1.77v25.06c0,2.44-0.72,5.02-3.11,6.11
		c-2.28,1.05-5.89,0.93-7.8-0.83c-1.79-1.65-1.91-4.39-1.91-6.82c0.01-7.62,0.02-15.24,0.04-22.85c0-0.49,0-1-0.24-1.42
		c-0.49-0.87-1.69-0.98-2.69-0.95c-0.97,0.02-2.15,0.21-2.51,1.12c-0.12,0.3-0.12,0.62-0.12,0.94c0.01,7.67,0.02,15.33,0.03,23
		c0,3.25,0.09,6.74,2.05,9.33c2.95,3.91,9.08,4.64,13.55,3.63c2.27-0.51,4.51-1.64,5.99-3.48c1.75-2.17,2.25-5.06,2.25-7.77V57.07z"
		/>
	<path class="st1" d="M85.79,74.34c0,0-9,15.39-9.03,15.45c-1.61,2.75,3.48,5.19,5.01,2.56l7.62-13.89c0,0,7.68,13.8,7.73,13.89
		c1.52,2.73,6.58,0.22,4.96-2.56l-9.03-15.45c0,0,8.75-15.32,8.77-15.35c1.77-3.1-3.46-5.33-5.12-2.3l-7.31,13.36
		c0,0-7.18-13.32-7.2-13.36c-1.62-3-7-0.89-5.17,2.3L85.79,74.34z"/>
	<path class="st1" d="M52.01,29.71c0.61,1.51,2.43,2.26,3.93,1.63c1.54-0.65,2.19-2.46,1.57-3.97c-0.62-1.54-2.49-2.29-4-1.6
		C52.02,26.45,51.4,28.22,52.01,29.71z"/>
	<path class="st1" d="M144.14,101.79c-0.61-1.51-2.38-2.26-3.89-1.65c-1.51,0.61-2.26,2.38-1.65,3.89l0.04,0.1
		c0.65,1.6,2.58,2.32,4.12,1.55c1.37-0.69,2-2.37,1.42-3.79L144.14,101.79z"/>
</g>
</svg>
