<svg id="Layer_1" data-name="Layer 1" xmlns="http://www.w3.org/2000/svg" viewBox="0 0 150 150">
  <defs>
    <style>
      .cls-1 {
        fill: #fff;
      }
    </style>
  </defs>
  <title>webDevelopment</title>
  <g>
    <path class="cls-1" d="M146.94,12.2H3.06A3.06,3.06,0,0,0,0,15.26v117.3a3.06,3.06,0,0,0,3.06,3.06H146.94a3.06,3.06,0,0,0,3.06-3.06V15.26A3.06,3.06,0,0,0,146.94,12.2Zm-3.06,6.12V36.76H6.12V18.32ZM6.12,129.5V42.88H143.88V129.5Z"/>
    <path class="cls-1" d="M47.78,58.28H23.3a3.06,3.06,0,0,0-3.06,3.06v24.8A3.06,3.06,0,0,0,23.3,89.2H47.78a3.06,3.06,0,0,0,3.06-3.06V61.34A3.06,3.06,0,0,0,47.78,58.28Zm-3.06,24.8H26.36V64.4H44.72Z"/>
    <path class="cls-1" d="M62.54,89.2H87a3.07,3.07,0,0,0,3.07-3.06V61.34A3.07,3.07,0,0,0,87,58.28H62.54a3.06,3.06,0,0,0-3.06,3.06v24.8A3.06,3.06,0,0,0,62.54,89.2ZM65.6,64.4H84V83.08H65.6Z"/>
    <path class="cls-1" d="M101.77,89.2h24.48a3.06,3.06,0,0,0,3.06-3.06V61.34a3.06,3.06,0,0,0-3.06-3.06H101.77a3.06,3.06,0,0,0-3.06,3.06v24.8A3.06,3.06,0,0,0,101.77,89.2Zm3.06-24.8h18.36V83.08H104.83Z"/>
    <path class="cls-1" d="M47.78,97H23.3a3.06,3.06,0,1,0,0,6.12H47.78a3.06,3.06,0,0,0,0-6.12Z"/>
    <path class="cls-1" d="M47.78,108.29H23.3a3.07,3.07,0,0,0,0,6.13H47.78a3.07,3.07,0,0,0,0-6.13Z"/>
    <path class="cls-1" d="M87.24,97H62.76a3.06,3.06,0,1,0,0,6.12H87.24a3.06,3.06,0,0,0,0-6.12Z"/>
    <path class="cls-1" d="M87.24,108.29H62.76a3.07,3.07,0,0,0,0,6.13H87.24a3.07,3.07,0,0,0,0-6.13Z"/>
    <path class="cls-1" d="M126.7,97H102.22a3.06,3.06,0,0,0,0,6.12H126.7a3.06,3.06,0,0,0,0-6.12Z"/>
    <path class="cls-1" d="M126.7,108.29H102.22a3.07,3.07,0,0,0,0,6.13H126.7a3.07,3.07,0,0,0,0-6.13Z"/>
    <path class="cls-1" d="M23.3,30.53h1.51a3.06,3.06,0,1,0,0-6.12H23.3a3.06,3.06,0,0,0,0,6.12Z"/>
    <path class="cls-1" d="M36,30.53h1.51a3.06,3.06,0,1,0,0-6.12H36a3.06,3.06,0,1,0,0,6.12Z"/>
    <path class="cls-1" d="M48.69,30.53H50.2a3.06,3.06,0,1,0,0-6.12H48.69a3.06,3.06,0,1,0,0,6.12Z"/>
  </g>
</svg>
